<svg xmlns="http://www.w3.org/2000/svg" viewBox="0 0 1362.77 1362.77"><defs><style>.cls-1{isolation:isolate;}.cls-2{fill:#ecf7ff;}.cls-3{fill:#fff;}.cls-4{fill:#6dae7a;}.cls-5{fill:#d77e43;}.cls-6{fill:#7dc0e0;}.cls-7{fill:#956337;}.cls-8{fill:#e3b63a;}</style></defs><g id="Ellipse_1" data-name="Ellipse 1" class="cls-1"><g id="Ellipse_1-2" data-name="Ellipse 1"><circle class="cls-2" cx="681.38" cy="681.38" r="653.52"/></g></g><g id="trazo" class="cls-1"><g id="trazo-2" data-name="trazo"><path class="cls-3" d="M681.38,0C306.09,0,0,306.09,0,681.38s306.09,681.39,681.38,681.39,681.39-306.1,681.39-681.39S1056.68,0,681.38,0Zm0,1330.47c-357.5,0-649.09-291.58-649.09-649.09S323.88,32.29,681.38,32.29s649.1,291.58,649.1,649.09S1038.89,1330.47,681.38,1330.47Z"/></g></g><g id="Shape_7" data-name="Shape 7" class="cls-1"><g id="Shape_7-2" data-name="Shape 7"><path class="cls-4" d="M870.27,169.71c-54-53.31-118.09-61.86-190.08-61.86a568.93,568.93,0,0,0-113.08,11.33c96.56,1.31,128.28,20.24,196.15,88.82,22.13,22.36,44.33,44.48,68.81,59.85,28.82,18.11,57.6,30.1,104.57,23C916.72,243.4,901.85,200.88,870.27,169.71Z"/></g></g><g id="Shape_8" data-name="Shape 8" class="cls-1"><g id="Shape_8-2" data-name="Shape 8"><path class="cls-4" d="M938.54,171.67c-24.74-15.48-55.15-24.68-82-35,71.41,54.06,65.34,68.55,86.25,153.79C994.29,252.66,986.32,201.57,938.54,171.67Z"/></g></g><g id="Shape_9" data-name="Shape 9" class="cls-1"><g id="Shape_9-2" data-name="Shape 9"><path class="cls-4" d="M1143.86,343.92c-57.24-78-114.54-89.74-195.48-50.87,147.41,56.38,206.2,82.93,282,223.86A571.11,571.11,0,0,0,1143.86,343.92Z"/></g></g><g id="Shape_10" data-name="Shape 10" class="cls-1"><g id="Shape_10-2" data-name="Shape 10"><path class="cls-4" d="M1085.21,394.51c-42.31-38.83-88-76-142.46-99.75-27.48,104.22,28,145.94,102.84,196.8,99.73,67.46,139.06,89.56,155.58,219.73C1213.24,587.61,1176.36,478.15,1085.21,394.51Z"/></g></g><g id="Shape_11" data-name="Shape 11" class="cls-1"><g id="Shape_11-2" data-name="Shape 11"><path class="cls-4" d="M927.44,344.48c1.33-15.54,4.51-30.92,10.68-45.45-65.8,70.57-40.48,117-53.27,197.09-3,18.7-8.6,38.85-18.73,64.57,14.94-11.27,32.12-20.53,45.47-35.32C953.7,478.71,922.56,401.62,927.44,344.48Z"/></g></g><g id="Shape_2" data-name="Shape 2" class="cls-1"><g id="Shape_2-2" data-name="Shape 2"><path class="cls-5" d="M760.36,729.44c12.4-157.1,50.87-308.26,170.93-430.4C703.63,365.52,680.31,525.7,760.36,729.44Z"/></g></g><g id="Shape_3" data-name="Shape 3" class="cls-1"><g id="Shape_3-2" data-name="Shape 3"><path class="cls-6" d="M1116.17,844.72c-68,29.41-167.29,26.53-218.45-27.58-29.9-31.63-42-82.7-25.09-123.49,14.15-34.07,44.13-57.16,79.14-57,40.63.17,71.4,21,75.1,62.1,2.28,25.33-11.73,54.43-41.88,50.83-13.67-1.63-25.8-11.56-27.75-29.24-2-18.32,11.73-36.83,38.12-30.52-32.68-29.71-82,3.57-91.09,41.89-6.63,27.8.83,60.24,21.36,79.8,27.11,25.83,71.81,30.13,111.76,3.39,57.1-38.19,56.55-138.36-5.49-190.58-111.08-93.51-280,16.13-240.11,157.08,57,201.18,352.09,181.27,432.28,10.37,16.75-35.69,26.65-78.59,28.69-129.83C1240.26,744.52,1188.31,813.52,1116.17,844.72Z"/></g></g><g id="Shape_6" data-name="Shape 6" class="cls-1"><g id="Shape_6-2" data-name="Shape 6"><path class="cls-6" d="M835.88,942.21c-71.32-26.36-146.07-70.61-221.58-97.77-89.42-32.17-189-37.73-264.57,32.07-48.07,44.42-68.85,106.22-60.87,163.82,15.57,112.37,139.48,180.39,239.45,118.12a114.81,114.81,0,0,0,48.38-134.14c-15.87-46.27-54.61-72.09-94.21-72.86-42-.81-84.64,23.32-85.17,69.26-.16,13.88,4.79,27.46,18.13,36.31-17.51-36.71,10.9-64.14,43.28-52.6,31.78,16.88,35.54,55.31,5.95,75.4-35.61,24.18-84,2.53-104.9-30.92-11-17.72-15.08-39.64-9.65-64,5.86-26.28,20-46.79,38.91-61.18,55.45-42.18,120.91-25.65,173,11,37.07,26.11,70.27,54.82,105,81.73,84.08,65.2,172.19,108.07,282,101.1,50.17-8.78,99.08-23.9,144.13-58.48,57.92-44.46,115.81-127.6,145.77-258.15C1155.48,983.7,1021.87,1011,835.88,942.21Z"/></g></g><g id="Shape_12" data-name="Shape 12" class="cls-1"><g id="Shape_12-2" data-name="Shape 12"><path class="cls-6" d="M1009.59,550a153.22,153.22,0,0,0-71.9,17.78,159.22,159.22,0,0,1,19.64-1.2c85,0,154.33,67,154.33,149.14,0,48.77-24.43,92.2-62.07,119.44,63.44-17,110.25-73.36,110.25-139.95C1159.84,615.24,1092.34,550,1009.59,550Z"/></g></g><g id="Shape_14" data-name="Shape 14" class="cls-1"><g id="Shape_14-2" data-name="Shape 14"><path class="cls-6" d="M980.26,1144.51c-85.62,30.33-161.89-11.16-243.45-31.54-51.77-13-103.31-17.4-137,12.34-30,26.5-34.85,78-6.32,107.4a62.37,62.37,0,0,0,39.69,19c21-.35,39.77-6,48.91-18.19,13.51-18.07,5.57-47.9-17-54a28.83,28.83,0,0,0-18.69,1.4c13.67-.61,19.42,10.82,17.38,21.4a20.71,20.71,0,0,1-16.88,16.8c-18.79,3.47-33.58-16.18-31.26-33.58,3.44-25.84,29.18-35.71,52.4-34.94,20.37.68,42.17,7.52,57.23,13.12,158,58.7,239.58,41.37,368.36-87.15C1052.26,1106.43,1018.1,1131.11,980.26,1144.51Z"/></g></g><g id="montaña" class="cls-1"><g id="montaña-2" data-name="montaña"><path class="cls-7" d="M636.47,497.79c-15.82-25.31-34-44.19-53.49-43.35-13.89.59-30.15,9.19-45.73,31.26-27.24,38.61-54,40.54-74.45-1.55-26.46-54.38-47.41-111.28-69.8-167.46-26.42-66.27-72.87-89.21-152,0C141.29,429.06,110.07,562.24,107.87,663.86c183-180.43,403.51-100,659,141.41C723.34,707.2,693.32,588.75,636.47,497.79Z"/></g></g><g id="arena" class="cls-1"><g id="arena-2" data-name="arena"><path class="cls-8" d="M317.74,637.18c-107.39,20.57-188.51,111.27-171.68,223.5,8.82,58.79,42.15,126.64,107.82,199.84-40.2-123.36-2.16-216,71.66-265.58,67.21-45.16,164.07-54.66,258.56-19.24,91.62,34.34,178.47,96,270.3,132.7C669.37,799.21,549.79,592.74,317.74,637.18Z"/></g></g><g id="sol" class="cls-1"><g id="sol-2" data-name="sol"><path class="cls-8" d="M597.85,216.24c38.92-31.56,24.8-71.86-23.39-78.61C592.67,160.78,605.28,185.57,597.85,216.24ZM663.17,147c8.05,33.91,6.28,60.43-8,80.92C693.49,220.27,714.71,188.6,663.17,147Zm54.89,197.85c36.25-29.55,83.45-32.87,131-35.33C775,269.37,722.6,284.17,718.06,344.83Zm62-102.15c-43.95-34.51-76.89-20-85,21.88C725.12,243.35,752.75,241.62,780,242.68ZM321.46,238.3c64.21-31.23,119.18-13.85,169.52,16C454.89,166.8,396.58,174.44,321.46,238.3ZM632.28,444.09c30.88,23.47,52.65,53,63.42,89.91C718,471.29,685.83,435,632.28,444.09Zm60.3-50.93c20.84-.64,38.77,6.76,48.43,19.53C745.83,384.78,725.44,371.57,692.58,393.16Zm-141.92-172c-.11-69.25-35.51-88.72-107.14-59.66C491.12,166.92,529.88,182.2,550.66,221.15ZM694,367.91a102.92,102.92,0,0,0,3-60.8c-17.87-67.52-96.91-92.09-156.48-64.53-50.85,23.52-82.88,81.87-68.28,147.48a189.63,189.63,0,0,0,32,70.24c-11-41.86-10-103.79,18.22-141.22,20.67-27.38,63.2-41.84,95.16-25.93a40.71,40.71,0,0,1,22,27.15c3.64,14.1-1,26.26-8.8,33.19-6.77,6-15.93,8.08-24.11,4.07-13.61-6.68-18-23.23-13.7-36.9A38.66,38.66,0,0,1,602,305.93c-50.51-5.1-67.4,60.86-36.13,94.16C606,442.81,675,419.88,694,367.91Z"/></g></g></svg>